# xmcd
#
# Track frame offsets:
#	150
#	20240
#	33006
#	47931
#	65781
#	76243
#	89512
#	101140
#	120050
#	135304
#	150529
#	166506
#	182704
#	200511
#	217464
#	233115
#
# Disc length: 3239 seconds
#
# Revision: 0
# Processed by: cddbd v1.4PL0 Copyright (c) Steve Scherf et al.
# Submitted via: dBpowerAMP V4.0
#
DISCID=d50ca510
DTITLE=James Taylor - The collection
DYEAR=1900
DGENRE=Country
TTITLE0=You've got a friend
TTITLE1=Sweet Baby James
TTITLE2=I was a fool to care
TTITLE3=Carolina on my mind
TTITLE4=Long ago and far away
TTITLE5=Mexico
TTITLE6=Don't let me lonely be tonight
TTITLE7=Mockingbird (Duet with Carly Simon)
TTITLE8=Fire and rain
TTITLE9=Country road
TTITLE10=Walking Man
TTITLE11=How sweet it is (To be loved by you)
TTITLE12=Shower the people
TTITLE13=Hey Mister, that's me upon the jukebox
TTITLE14=A junkie's lament
TTITLE15=Blossom
EXTD=
EXTT0=
EXTT1=
EXTT2=
EXTT3=
EXTT4=
EXTT5=
EXTT6=
EXTT7=
EXTT8=
EXTT9=
EXTT10=
EXTT11=
EXTT12=
EXTT13=
EXTT14=
EXTT15=
PLAYORDER=
